<mxfile host="Electron" modified="2024-02-22T09:34:45.884Z" agent="Mozilla/5.0 (Windows NT 10.0; Win64; x64) AppleWebKit/537.36 (KHTML, like Gecko) draw.io/23.0.2 Chrome/120.0.6099.109 Electron/28.1.0 Safari/537.36" etag="hEnn_DWYi-afZfWoxw62" version="23.0.2" type="device">
  <diagram id="C5RBs43oDa-KdzZeNtuy" name="Page-1">
    <mxGraphModel dx="844" dy="1094" grid="1" gridSize="10" guides="1" tooltips="1" connect="1" arrows="1" fold="1" page="1" pageScale="1" pageWidth="827" pageHeight="1169" math="0" shadow="0">
      <root>
        <mxCell id="WIyWlLk6GJQsqaUBKTNV-0" />
        <mxCell id="WIyWlLk6GJQsqaUBKTNV-1" parent="WIyWlLk6GJQsqaUBKTNV-0" />
        <mxCell id="pW0bUvLN3ZfoZVYpNkDj-0" value="Взаимодействие с плейлистом" style="shape=note;whiteSpace=wrap;html=1;backgroundOutline=1;darkOpacity=0.05;size=18;" vertex="1" parent="WIyWlLk6GJQsqaUBKTNV-1">
          <mxGeometry x="40" y="80" width="160" height="80" as="geometry" />
        </mxCell>
        <mxCell id="pW0bUvLN3ZfoZVYpNkDj-14" value="" style="edgeStyle=orthogonalEdgeStyle;rounded=0;orthogonalLoop=1;jettySize=auto;html=1;" edge="1" parent="WIyWlLk6GJQsqaUBKTNV-1" source="pW0bUvLN3ZfoZVYpNkDj-1" target="pW0bUvLN3ZfoZVYpNkDj-2">
          <mxGeometry relative="1" as="geometry" />
        </mxCell>
        <mxCell id="pW0bUvLN3ZfoZVYpNkDj-1" value="" style="ellipse;whiteSpace=wrap;html=1;aspect=fixed;" vertex="1" parent="WIyWlLk6GJQsqaUBKTNV-1">
          <mxGeometry x="280" y="80" width="80" height="80" as="geometry" />
        </mxCell>
        <mxCell id="pW0bUvLN3ZfoZVYpNkDj-15" style="edgeStyle=orthogonalEdgeStyle;rounded=0;orthogonalLoop=1;jettySize=auto;html=1;exitX=0.5;exitY=1;exitDx=0;exitDy=0;entryX=0.5;entryY=0;entryDx=0;entryDy=0;" edge="1" parent="WIyWlLk6GJQsqaUBKTNV-1" source="pW0bUvLN3ZfoZVYpNkDj-2" target="pW0bUvLN3ZfoZVYpNkDj-3">
          <mxGeometry relative="1" as="geometry" />
        </mxCell>
        <mxCell id="pW0bUvLN3ZfoZVYpNkDj-2" value="Пользователь открывает сайт" style="rounded=1;whiteSpace=wrap;html=1;" vertex="1" parent="WIyWlLk6GJQsqaUBKTNV-1">
          <mxGeometry x="165" y="210" width="310" height="70" as="geometry" />
        </mxCell>
        <mxCell id="pW0bUvLN3ZfoZVYpNkDj-3" value="" style="rhombus;whiteSpace=wrap;html=1;" vertex="1" parent="WIyWlLk6GJQsqaUBKTNV-1">
          <mxGeometry x="265" y="330" width="110" height="80" as="geometry" />
        </mxCell>
        <mxCell id="pW0bUvLN3ZfoZVYpNkDj-18" value="" style="edgeStyle=orthogonalEdgeStyle;rounded=0;orthogonalLoop=1;jettySize=auto;html=1;" edge="1" parent="WIyWlLk6GJQsqaUBKTNV-1" source="pW0bUvLN3ZfoZVYpNkDj-4" target="pW0bUvLN3ZfoZVYpNkDj-6">
          <mxGeometry relative="1" as="geometry" />
        </mxCell>
        <mxCell id="pW0bUvLN3ZfoZVYpNkDj-4" value="Просмотр главной страницы&amp;nbsp; &amp;nbsp; &amp;nbsp; &amp;nbsp; &amp;nbsp; &amp;nbsp; &amp;nbsp; &amp;nbsp; &amp;nbsp; &amp;nbsp; &amp;nbsp; &amp;nbsp; &amp;nbsp; &amp;nbsp; &amp;nbsp; &amp;nbsp; &amp;nbsp;Просмотр каталога" style="rounded=1;whiteSpace=wrap;html=1;" vertex="1" parent="WIyWlLk6GJQsqaUBKTNV-1">
          <mxGeometry x="127.5" y="460" width="385" height="70" as="geometry" />
        </mxCell>
        <mxCell id="pW0bUvLN3ZfoZVYpNkDj-19" value="" style="edgeStyle=orthogonalEdgeStyle;rounded=0;orthogonalLoop=1;jettySize=auto;html=1;" edge="1" parent="WIyWlLk6GJQsqaUBKTNV-1" source="pW0bUvLN3ZfoZVYpNkDj-6" target="pW0bUvLN3ZfoZVYpNkDj-8">
          <mxGeometry relative="1" as="geometry" />
        </mxCell>
        <mxCell id="pW0bUvLN3ZfoZVYpNkDj-6" value="" style="rhombus;whiteSpace=wrap;html=1;" vertex="1" parent="WIyWlLk6GJQsqaUBKTNV-1">
          <mxGeometry x="265" y="584.5" width="110" height="80" as="geometry" />
        </mxCell>
        <mxCell id="pW0bUvLN3ZfoZVYpNkDj-20" value="" style="edgeStyle=orthogonalEdgeStyle;rounded=0;orthogonalLoop=1;jettySize=auto;html=1;" edge="1" parent="WIyWlLk6GJQsqaUBKTNV-1" source="pW0bUvLN3ZfoZVYpNkDj-8" target="pW0bUvLN3ZfoZVYpNkDj-9">
          <mxGeometry relative="1" as="geometry" />
        </mxCell>
        <mxCell id="pW0bUvLN3ZfoZVYpNkDj-8" value="Взаимодействие с сайтом" style="rounded=1;whiteSpace=wrap;html=1;" vertex="1" parent="WIyWlLk6GJQsqaUBKTNV-1">
          <mxGeometry x="165" y="720" width="310" height="70" as="geometry" />
        </mxCell>
        <mxCell id="pW0bUvLN3ZfoZVYpNkDj-21" style="edgeStyle=orthogonalEdgeStyle;rounded=0;orthogonalLoop=1;jettySize=auto;html=1;exitX=1;exitY=0.5;exitDx=0;exitDy=0;entryX=0;entryY=0.5;entryDx=0;entryDy=0;" edge="1" parent="WIyWlLk6GJQsqaUBKTNV-1" source="pW0bUvLN3ZfoZVYpNkDj-9" target="pW0bUvLN3ZfoZVYpNkDj-10">
          <mxGeometry relative="1" as="geometry" />
        </mxCell>
        <mxCell id="pW0bUvLN3ZfoZVYpNkDj-23" style="edgeStyle=orthogonalEdgeStyle;rounded=0;orthogonalLoop=1;jettySize=auto;html=1;exitX=0.5;exitY=1;exitDx=0;exitDy=0;" edge="1" parent="WIyWlLk6GJQsqaUBKTNV-1" source="pW0bUvLN3ZfoZVYpNkDj-9">
          <mxGeometry relative="1" as="geometry">
            <mxPoint x="319.8571428571428" y="1020" as="targetPoint" />
          </mxGeometry>
        </mxCell>
        <mxCell id="pW0bUvLN3ZfoZVYpNkDj-9" value="" style="rhombus;whiteSpace=wrap;html=1;" vertex="1" parent="WIyWlLk6GJQsqaUBKTNV-1">
          <mxGeometry x="155" y="850" width="330" height="110" as="geometry" />
        </mxCell>
        <mxCell id="pW0bUvLN3ZfoZVYpNkDj-22" style="edgeStyle=orthogonalEdgeStyle;rounded=0;orthogonalLoop=1;jettySize=auto;html=1;exitX=0.5;exitY=0;exitDx=0;exitDy=0;entryX=0.5;entryY=0;entryDx=0;entryDy=0;" edge="1" parent="WIyWlLk6GJQsqaUBKTNV-1" source="pW0bUvLN3ZfoZVYpNkDj-10" target="pW0bUvLN3ZfoZVYpNkDj-9">
          <mxGeometry relative="1" as="geometry" />
        </mxCell>
        <mxCell id="pW0bUvLN3ZfoZVYpNkDj-10" value="Техническая проблема" style="rounded=1;whiteSpace=wrap;html=1;" vertex="1" parent="WIyWlLk6GJQsqaUBKTNV-1">
          <mxGeometry x="610" y="870" width="230" height="70" as="geometry" />
        </mxCell>
        <mxCell id="pW0bUvLN3ZfoZVYpNkDj-11" value="Взаимодействие с плейлистом" style="shape=note;whiteSpace=wrap;html=1;backgroundOutline=1;darkOpacity=0.05;size=18;" vertex="1" parent="WIyWlLk6GJQsqaUBKTNV-1">
          <mxGeometry x="440" y="1000" width="190" height="80" as="geometry" />
        </mxCell>
        <mxCell id="pW0bUvLN3ZfoZVYpNkDj-13" value="" style="endArrow=none;dashed=1;html=1;rounded=0;entryX=1.01;entryY=0.499;entryDx=0;entryDy=0;entryPerimeter=0;exitX=0;exitY=0.5;exitDx=0;exitDy=0;" edge="1" parent="WIyWlLk6GJQsqaUBKTNV-1" source="pW0bUvLN3ZfoZVYpNkDj-1" target="pW0bUvLN3ZfoZVYpNkDj-0">
          <mxGeometry width="50" height="50" relative="1" as="geometry">
            <mxPoint x="350" y="410" as="sourcePoint" />
            <mxPoint x="400" y="360" as="targetPoint" />
          </mxGeometry>
        </mxCell>
        <mxCell id="pW0bUvLN3ZfoZVYpNkDj-16" style="edgeStyle=orthogonalEdgeStyle;rounded=0;orthogonalLoop=1;jettySize=auto;html=1;exitX=0.5;exitY=1;exitDx=0;exitDy=0;entryX=0.933;entryY=-0.077;entryDx=0;entryDy=0;entryPerimeter=0;" edge="1" parent="WIyWlLk6GJQsqaUBKTNV-1" source="pW0bUvLN3ZfoZVYpNkDj-3" target="pW0bUvLN3ZfoZVYpNkDj-4">
          <mxGeometry relative="1" as="geometry" />
        </mxCell>
        <mxCell id="pW0bUvLN3ZfoZVYpNkDj-17" style="edgeStyle=orthogonalEdgeStyle;rounded=0;orthogonalLoop=1;jettySize=auto;html=1;exitX=0.5;exitY=1;exitDx=0;exitDy=0;entryX=0.082;entryY=-0.036;entryDx=0;entryDy=0;entryPerimeter=0;" edge="1" parent="WIyWlLk6GJQsqaUBKTNV-1" source="pW0bUvLN3ZfoZVYpNkDj-3" target="pW0bUvLN3ZfoZVYpNkDj-4">
          <mxGeometry relative="1" as="geometry" />
        </mxCell>
        <mxCell id="pW0bUvLN3ZfoZVYpNkDj-24" value="" style="ellipse;shape=doubleEllipse;whiteSpace=wrap;html=1;aspect=fixed;" vertex="1" parent="WIyWlLk6GJQsqaUBKTNV-1">
          <mxGeometry x="290" y="1020" width="60" height="60" as="geometry" />
        </mxCell>
        <mxCell id="pW0bUvLN3ZfoZVYpNkDj-25" style="edgeStyle=orthogonalEdgeStyle;rounded=0;orthogonalLoop=1;jettySize=auto;html=1;exitX=1;exitY=0.5;exitDx=0;exitDy=0;entryX=-0.026;entryY=0.623;entryDx=0;entryDy=0;entryPerimeter=0;" edge="1" parent="WIyWlLk6GJQsqaUBKTNV-1" source="pW0bUvLN3ZfoZVYpNkDj-24" target="pW0bUvLN3ZfoZVYpNkDj-11">
          <mxGeometry relative="1" as="geometry" />
        </mxCell>
      </root>
    </mxGraphModel>
  </diagram>
</mxfile>
